<?xml version="1.0" encoding="UTF-8"?>
<!-- Generated by Pixelmator Pro 3.7.1 -->
<svg width="928" height="928" viewBox="48 48 928 928" xmlns="http://www.w3.org/2000/svg">
    <path id="Rectangle-copy-98" fill="#000000" fill-rule="evenodd" stroke="none" d="M 512 266 L 555 266 L 555 223 L 512 223 Z M 555 266 L 598 266 L 598 223 L 555 223 Z M 512 309 L 555 309 L 555 266 L 512 266 Z M 555 309 L 598 309 L 598 266 L 555 266 Z M 598 309 L 641 309 L 641 266 L 598 266 Z M 641 309 L 684 309 L 684 266 L 641 266 Z M 512 352 L 555 352 L 555 309 L 512 309 Z M 555 352 L 598 352 L 598 309 L 555 309 Z M 598 352 L 641 352 L 641 309 L 598 309 Z M 641 352 L 684 352 L 684 309 L 641 309 Z M 512 395 L 555 395 L 555 352 L 512 352 Z M 555 395 L 598 395 L 598 352 L 555 352 Z M 598 395 L 641 395 L 641 352 L 598 352 Z M 641 395 L 684 395 L 684 352 L 641 352 Z M 684 395 L 727 395 L 727 352 L 684 352 Z M 512 438 L 555 438 L 555 395 L 512 395 Z M 555 438 L 598 438 L 598 395 L 555 395 Z M 598 438 L 641 438 L 641 395 L 598 395 Z M 641 438 L 684 438 L 684 395 L 641 395 Z M 684 438 L 727 438 L 727 395 L 684 395 Z M 512 481 L 555 481 L 555 438 L 512 438 Z M 555 481 L 598 481 L 598 438 L 555 438 Z M 598 481 L 641 481 L 641 438 L 598 438 Z M 641 481 L 684 481 L 684 438 L 641 438 Z M 684 481 L 727 481 L 727 438 L 684 438 Z M 512 524 L 555 524 L 555 481 L 512 481 Z M 555 524 L 598 524 L 598 481 L 555 481 Z M 598 524 L 641 524 L 641 481 L 598 481 Z M 641 524 L 684 524 L 684 481 L 641 481 Z M 684 524 L 727 524 L 727 481 L 684 481 Z M 727 524 L 770 524 L 770 481 L 727 481 Z M 512 567 L 555 567 L 555 524 L 512 524 Z M 555 567 L 598 567 L 598 524 L 555 524 Z M 598 567 L 641 567 L 641 524 L 598 524 Z M 641 567 L 684 567 L 684 524 L 641 524 Z M 684 567 L 727 567 L 727 524 L 684 524 Z M 727 567 L 770 567 L 770 524 L 727 524 Z M 512 610 L 555 610 L 555 567 L 512 567 Z M 555 610 L 598 610 L 598 567 L 555 567 Z M 598 610 L 641 610 L 641 567 L 598 567 Z M 641 610 L 684 610 L 684 567 L 641 567 Z M 684 610 L 727 610 L 727 567 L 684 567 Z M 727 610 L 770 610 L 770 567 L 727 567 Z M 512 653 L 555 653 L 555 610 L 512 610 Z M 555 653 L 598 653 L 598 610 L 555 610 Z M 598 653 L 641 653 L 641 610 L 598 610 Z M 641 653 L 684 653 L 684 610 L 641 610 Z M 684 653 L 727 653 L 727 610 L 684 610 Z M 727 653 L 770 653 L 770 610 L 727 610 Z M 512 696 L 555 696 L 555 653 L 512 653 Z M 555 696 L 598 696 L 598 653 L 555 653 Z M 598 696 L 641 696 L 641 653 L 598 653 Z M 641 696 L 684 696 L 684 653 L 641 653 Z M 684 696 L 727 696 L 727 653 L 684 653 Z M 727 696 L 770 696 L 770 653 L 727 653 Z M 770 696 L 813 696 L 813 653 L 770 653 Z M 512 739 L 555 739 L 555 696 L 512 696 Z M 555 739 L 598 739 L 598 696 L 555 696 Z M 598 739 L 641 739 L 641 696 L 598 696 Z M 641 739 L 684 739 L 684 696 L 641 696 Z M 684 739 L 727 739 L 727 696 L 684 696 Z M 727 739 L 770 739 L 770 696 L 727 696 Z M 770 739 L 813 739 L 813 696 L 770 696 Z M 813 739 L 856 739 L 856 696 L 813 696 Z M 512 782 L 555 782 L 555 739 L 512 739 Z M 555 782 L 598 782 L 598 739 L 555 739 Z M 512 841 L 555 841 L 555 798 L 512 798 Z M 512 884 L 555 884 L 555 841 L 512 841 Z M 555 841 L 598 841 L 598 798 L 555 798 Z M 598 782 L 641 782 L 641 739 L 598 739 Z M 641 782 L 684 782 L 684 739 L 641 739 Z M 684 782 L 727 782 L 727 739 L 684 739 Z M 727 782 L 770 782 L 770 739 L 727 739 Z M 770 782 L 813 782 L 813 739 L 770 739 Z M 813 782 L 856 782 L 856 739 L 813 739 Z M 512 223 L 555 223 L 555 180 L 512 180 Z M 512 266 L 469 266 L 469 223 L 512 223 Z M 469 266 L 426 266 L 426 223 L 469 223 Z M 512 309 L 469 309 L 469 266 L 512 266 Z M 469 309 L 426 309 L 426 266 L 469 266 Z M 426 309 L 383 309 L 383 266 L 426 266 Z M 383 309 L 340 309 L 340 266 L 383 266 Z M 512 352 L 469 352 L 469 309 L 512 309 Z M 469 352 L 426 352 L 426 309 L 469 309 Z M 426 352 L 383 352 L 383 309 L 426 309 Z M 383 352 L 340 352 L 340 309 L 383 309 Z M 512 395 L 469 395 L 469 352 L 512 352 Z M 469 395 L 426 395 L 426 352 L 469 352 Z M 426 395 L 383 395 L 383 352 L 426 352 Z M 383 395 L 340 395 L 340 352 L 383 352 Z M 340 395 L 297 395 L 297 352 L 340 352 Z M 512 438 L 469 438 L 469 395 L 512 395 Z M 469 438 L 426 438 L 426 395 L 469 395 Z M 426 438 L 383 438 L 383 395 L 426 395 Z M 383 438 L 340 438 L 340 395 L 383 395 Z M 340 438 L 297 438 L 297 395 L 340 395 Z M 512 481 L 469 481 L 469 438 L 512 438 Z M 469 481 L 426 481 L 426 438 L 469 438 Z M 426 481 L 383 481 L 383 438 L 426 438 Z M 383 481 L 340 481 L 340 438 L 383 438 Z M 340 481 L 297 481 L 297 438 L 340 438 Z M 512 524 L 469 524 L 469 481 L 512 481 Z M 469 524 L 426 524 L 426 481 L 469 481 Z M 426 524 L 383 524 L 383 481 L 426 481 Z M 383 524 L 340 524 L 340 481 L 383 481 Z M 340 524 L 297 524 L 297 481 L 340 481 Z M 297 524 L 254 524 L 254 481 L 297 481 Z M 512 567 L 469 567 L 469 524 L 512 524 Z M 469 567 L 426 567 L 426 524 L 469 524 Z M 426 567 L 383 567 L 383 524 L 426 524 Z M 383 567 L 340 567 L 340 524 L 383 524 Z M 340 567 L 297 567 L 297 524 L 340 524 Z M 297 567 L 254 567 L 254 524 L 297 524 Z M 512 610 L 469 610 L 469 567 L 512 567 Z M 469 610 L 426 610 L 426 567 L 469 567 Z M 426 610 L 383 610 L 383 567 L 426 567 Z M 383 610 L 340 610 L 340 567 L 383 567 Z M 340 610 L 297 610 L 297 567 L 340 567 Z M 297 610 L 254 610 L 254 567 L 297 567 Z M 512 653 L 469 653 L 469 610 L 512 610 Z M 469 653 L 426 653 L 426 610 L 469 610 Z M 426 653 L 383 653 L 383 610 L 426 610 Z M 383 653 L 340 653 L 340 610 L 383 610 Z M 340 653 L 297 653 L 297 610 L 340 610 Z M 297 653 L 254 653 L 254 610 L 297 610 Z M 512 696 L 469 696 L 469 653 L 512 653 Z M 469 696 L 426 696 L 426 653 L 469 653 Z M 426 696 L 383 696 L 383 653 L 426 653 Z M 383 696 L 340 696 L 340 653 L 383 653 Z M 340 696 L 297 696 L 297 653 L 340 653 Z M 297 696 L 254 696 L 254 653 L 297 653 Z M 254 696 L 211 696 L 211 653 L 254 653 Z M 512 739 L 469 739 L 469 696 L 512 696 Z M 469 739 L 426 739 L 426 696 L 469 696 Z M 426 739 L 383 739 L 383 696 L 426 696 Z M 383 739 L 340 739 L 340 696 L 383 696 Z M 340 739 L 297 739 L 297 696 L 340 696 Z M 297 739 L 254 739 L 254 696 L 297 696 Z M 254 739 L 211 739 L 211 696 L 254 696 Z M 211 739 L 168 739 L 168 696 L 211 696 Z M 512 782 L 469 782 L 469 739 L 512 739 Z M 469 782 L 426 782 L 426 739 L 469 739 Z M 512 841 L 469 841 L 469 798 L 512 798 Z M 512 884 L 469 884 L 469 841 L 512 841 Z M 469 841 L 426 841 L 426 798 L 469 798 Z M 426 782 L 383 782 L 383 739 L 426 739 Z M 383 782 L 340 782 L 340 739 L 383 739 Z M 340 782 L 297 782 L 297 739 L 340 739 Z M 297 782 L 254 782 L 254 739 L 297 739 Z M 254 782 L 211 782 L 211 739 L 254 739 Z M 211 782 L 168 782 L 168 739 L 211 739 Z M 512 223 L 469 223 L 469 180 L 512 180 Z"/>
</svg>
